<?xml version="1.0" encoding="UTF-8"?>
<svg xmlns="http://www.w3.org/2000/svg" viewBox="0 0 560.2 223.6" width="2400" height="960"><path fill="none" d="M0 0h560.2v223.6H0z"/><path fill="#fff" fill-rule="evenodd" d="M248.8 110.3a13.766 13.766 0 0 0 8.8-13c0-11.7-8.3-17.5-19.7-17.5H208v63.6h32.5c10 0 19.8-7 19.8-17.7 0-12.7-11.5-15.3-11.5-15.4zM223.6 93h11.6a5.669 5.669 0 0 1 6 6 5.927 5.927 0 0 1-6.3 5.8h-11.3V93zm11.7 37.1h-11.7v-12.5H235c5.7 0 8.4 2.5 8.4 6.2 0 4.6-3.4 6.3-8.1 6.3zM294.7 78.2c-18.4 0-29.2 14.7-29.2 33.3 0 18.7 10.8 33.3 29.2 33.3 18.5 0 29.2-14.6 29.2-33.3 0-18.6-10.7-33.3-29.2-33.3zm0 51.4c-9 0-13.5-8.1-13.5-18.1s4.5-18 13.5-18 13.6 8.1 13.6 18c0 10.1-4.6 18.1-13.6 18.1zM357.8 104.8l-2.2-.5c-5.4-1.1-9.7-2.5-9.7-6.4 0-4.2 4.1-5.9 7.7-5.9a17.894 17.894 0 0 1 13 5.9l9.9-9.8c-4.5-5.1-11.8-10-23.2-10-13.4 0-23.6 7.5-23.6 20 0 11.4 8.2 17 18.2 19.1l2.2.5c8.3 1.7 11.4 3 11.4 7 0 3.8-3.4 6.3-8.6 6.3-6.2 0-11.8-2.7-16.1-8.2l-10.1 10c5.6 6.7 12.7 11.9 26.4 11.9 11.9 0 24.6-6.8 24.6-20.7.2-14.5-10.8-17.3-19.9-19.2zM413.3 129.6c-7 0-14.3-5.8-14.3-18.5 0-11.3 6.8-17.6 13.9-17.6 5.6 0 8.9 2.6 11.5 7.1l12.8-8.5c-6.4-9.7-14-13.8-24.5-13.8-19.2 0-29.6 14.9-29.6 32.9 0 18.9 11.5 33.7 29.4 33.7 12.6 0 18.6-4.4 25.1-13.8l-12.9-8.7c-2.6 4.2-5.4 7.2-11.4 7.2zM479.9 79.8v23.4h-19.3V79.8h-16.7v63.6h16.7v-25.1h19.3v25.1h16.7V79.8h-16.7z"/><path fill="#fff" d="M111.8 63.6a48.2 48.2 0 1 0 48.2 48.2 48.226 48.226 0 0 0-48.2-48.2zm0 91.9a43.7 43.7 0 1 1 43.7-43.7 43.745 43.745 0 0 1-43.7 43.7z"/><path fill="#fff" d="M131.7 81.7h-3.3v16.5H95.3V81.7h-3.4a36.063 36.063 0 0 0 0 60.2h3.4v-16.5h33.1v16.5h3.3a36.063 36.063 0 0 0 0-60.2zm-41 53.7a31.572 31.572 0 0 1 0-47.2zm37.7-14.6H95.3v-18.1h33.1zm4.5 14.5V88.2a31.66 31.66 0 0 1 0 47.1z"/></svg>
